<?xml version="1.0" encoding="utf-8"?>
<!-- Generator: Adobe Illustrator 17.0.0, SVG Export Plug-In . SVG Version: 6.00 Build 0)  -->
<!DOCTYPE svg PUBLIC "-//W3C//DTD SVG 1.1//EN" "http://www.w3.org/Graphics/SVG/1.1/DTD/svg11.dtd">
<svg version="1.1" xmlns="http://www.w3.org/2000/svg" xmlns:xlink="http://www.w3.org/1999/xlink" x="0px" y="0px"
	 width="226.069px" height="226.602px" viewBox="0 0 226.069 226.602" enable-background="new 0 0 226.069 226.602"
	 xml:space="preserve">
<g id="Layer_1">
	<polygon fill="#FFFFFF" stroke="#000000" stroke-width="3" stroke-miterlimit="10" points="187.433,38.154 5.729,83.012 
		185.808,136.288 	"/>
	<path stroke="#000000" stroke-width="3" stroke-miterlimit="10" d="M224.569,37.657c0.003-0.497-0.133-2.096-0.45-3.803
		c-1.075-1.482-2.36-2.77-3.775-3.917l-0.311-0.086l-2.213-1.033c0,0-1.623-0.738-2.213-1.18c-0.59-0.443-0.738-1.033-0.738-2.213
		s1.307-12.528,1.307-12.528c0-2.939,1.209-2.492-2.149-8.369s-5.457-1.679-8.816,0s-2.939,7.556-2.939,7.556s0,9.655,0,13.853
		s-4.198,3.358-8.396,5.877s-5.457,5.038-5.038,7.976c0.113,0.794,0.319,1.864,0.575,3.161c0.691,3.5,1.751,8.65,2.364,14.471
		c0.84,7.976-2.939,81.861-4.198,103.691c-1.259,21.83-1.679,23.089-2.839,44.079c-1.159,20.99-17.312,18.891-4.298,19.731
		s19.311-1.259,15.113-6.297s-3.778-11.754-3.778-19.731s1.679-23.089,3.358-38.202s7.976-56.673,10.075-67.168
		s5.877-22.249,9.655-32.325c2.503-6.675,6.925-16.49,9.631-22.368C224.533,38.439,224.567,38.047,224.569,37.657z"/>
	<g>
		<rect x="451.383" y="137.355" fill="none" width="42.954" height="0"/>
	</g>
</g>
<g id="Layer_2">
	<g>
	</g>
	<g>
	</g>
	<g>
	</g>
	<g>
	</g>
	<g>
	</g>
	<g>
	</g>
</g>
</svg>
